<mxfile host="65bd71144e">
    <diagram id="rwZVFnb9-4XuviEcM_qo" name="페이지-1">
        <mxGraphModel dx="939" dy="442" grid="1" gridSize="10" guides="1" tooltips="1" connect="1" arrows="1" fold="1" page="1" pageScale="1" pageWidth="827" pageHeight="1169" background="#ffffff" math="0" shadow="0">
            <root>
                <mxCell id="0"/>
                <mxCell id="1" parent="0"/>
                <mxCell id="2" value="Button" style="whiteSpace=wrap;html=1;fontSize=18;strokeColor=#666666;fontColor=#333333;fillColor=#f5f5f5;" parent="1" vertex="1">
                    <mxGeometry x="110" y="360" width="120" height="60" as="geometry"/>
                </mxCell>
                <mxCell id="6" value="" style="edgeStyle=none;html=1;fontSize=18;strokeColor=#666666;fontColor=#000000;fillColor=#f5f5f5;" parent="1" source="4" target="2" edge="1">
                    <mxGeometry relative="1" as="geometry"/>
                </mxCell>
                <mxCell id="8" value="" style="edgeStyle=none;html=1;fontSize=18;strokeColor=#666666;fontColor=#000000;fillColor=#f5f5f5;" parent="1" source="4" target="7" edge="1">
                    <mxGeometry relative="1" as="geometry"/>
                </mxCell>
                <mxCell id="4" value="Listener" style="whiteSpace=wrap;html=1;fontSize=18;strokeColor=#666666;fontColor=#333333;fillColor=#f5f5f5;" parent="1" vertex="1">
                    <mxGeometry x="110" y="220" width="120" height="60" as="geometry"/>
                </mxCell>
                <mxCell id="14" value="" style="edgeStyle=none;html=1;fontSize=18;strokeColor=#666666;fontColor=#000000;fillColor=#f5f5f5;" parent="1" source="7" target="13" edge="1">
                    <mxGeometry relative="1" as="geometry"/>
                </mxCell>
                <mxCell id="7" value="Controller" style="whiteSpace=wrap;html=1;fontSize=18;strokeColor=#666666;fontColor=#333333;fillColor=#f5f5f5;" parent="1" vertex="1">
                    <mxGeometry x="310" y="220" width="120" height="60" as="geometry"/>
                </mxCell>
                <mxCell id="12" value="" style="edgeStyle=none;html=1;fontSize=18;strokeColor=#666666;fontColor=#000000;fillColor=#f5f5f5;" parent="1" source="9" target="11" edge="1">
                    <mxGeometry relative="1" as="geometry"/>
                </mxCell>
                <mxCell id="9" value="View" style="whiteSpace=wrap;html=1;fontSize=18;strokeColor=#666666;fontColor=#333333;fillColor=#f5f5f5;" parent="1" vertex="1">
                    <mxGeometry x="510" y="220" width="120" height="60" as="geometry"/>
                </mxCell>
                <mxCell id="11" value="Led" style="whiteSpace=wrap;html=1;fontSize=18;strokeColor=#666666;fontColor=#333333;fillColor=#f5f5f5;" parent="1" vertex="1">
                    <mxGeometry x="510" y="360" width="120" height="60" as="geometry"/>
                </mxCell>
                <mxCell id="15" style="edgeStyle=orthogonalEdgeStyle;html=1;exitX=1;exitY=0.5;exitDx=0;exitDy=0;entryX=0.5;entryY=0;entryDx=0;entryDy=0;fontSize=18;rounded=0;strokeColor=#666666;fontColor=#000000;fillColor=#f5f5f5;" parent="1" source="13" target="9" edge="1">
                    <mxGeometry relative="1" as="geometry"/>
                </mxCell>
                <mxCell id="13" value="Service" style="whiteSpace=wrap;html=1;fontSize=18;strokeColor=#666666;fontColor=#333333;fillColor=#f5f5f5;" parent="1" vertex="1">
                    <mxGeometry x="310" y="80" width="120" height="60" as="geometry"/>
                </mxCell>
                <mxCell id="16" value="Button" style="whiteSpace=wrap;html=1;fontSize=18;fillColor=#ffff88;strokeColor=#000000;fontColor=#000000;" parent="1" vertex="1">
                    <mxGeometry x="60" y="835" width="120" height="60" as="geometry"/>
                </mxCell>
                <mxCell id="17" value="" style="edgeStyle=none;html=1;fontSize=18;entryX=0.5;entryY=0;entryDx=0;entryDy=0;rounded=0;fontColor=#000000;strokeColor=#000000;" parent="1" source="19" edge="1">
                    <mxGeometry relative="1" as="geometry">
                        <Array as="points">
                            <mxPoint x="199" y="765"/>
                            <mxPoint x="120" y="765"/>
                        </Array>
                        <mxPoint x="120" y="835" as="targetPoint"/>
                    </mxGeometry>
                </mxCell>
                <mxCell id="18" value="" style="edgeStyle=none;html=1;fontSize=18;strokeColor=#000000;" parent="1" source="19" target="21" edge="1">
                    <mxGeometry relative="1" as="geometry"/>
                </mxCell>
                <mxCell id="38" style="edgeStyle=none;rounded=0;html=1;entryX=0.5;entryY=0;entryDx=0;entryDy=0;exitX=0.5;exitY=1;exitDx=0;exitDy=0;fontColor=#000000;strokeColor=#000000;" parent="1" source="19" target="37" edge="1">
                    <mxGeometry relative="1" as="geometry">
                        <Array as="points">
                            <mxPoint x="199" y="765"/>
                            <mxPoint x="269" y="765"/>
                        </Array>
                    </mxGeometry>
                </mxCell>
                <mxCell id="19" value="Listener" style="whiteSpace=wrap;html=1;fontSize=18;strokeColor=#36393d;fillColor=#f9f7ed;fontColor=#000000;" parent="1" vertex="1">
                    <mxGeometry x="139" y="585" width="120" height="60" as="geometry"/>
                </mxCell>
                <mxCell id="33" style="edgeStyle=none;html=1;entryX=0.5;entryY=0;entryDx=0;entryDy=0;rounded=0;strokeColor=#000000;" parent="1" source="21" target="26" edge="1">
                    <mxGeometry relative="1" as="geometry">
                        <Array as="points">
                            <mxPoint x="609" y="675"/>
                            <mxPoint x="539" y="675"/>
                        </Array>
                    </mxGeometry>
                </mxCell>
                <mxCell id="34" style="edgeStyle=none;rounded=0;html=1;entryX=0.5;entryY=0;entryDx=0;entryDy=0;strokeColor=#000000;" parent="1" source="21" target="27" edge="1">
                    <mxGeometry relative="1" as="geometry">
                        <Array as="points">
                            <mxPoint x="609" y="675"/>
                            <mxPoint x="679" y="675"/>
                        </Array>
                    </mxGeometry>
                </mxCell>
                <mxCell id="21" value="Controller" style="whiteSpace=wrap;html=1;fontSize=18;strokeColor=#36393d;fillColor=#f9f7ed;fontColor=#000000;" parent="1" vertex="1">
                    <mxGeometry x="549" y="585" width="120" height="60" as="geometry"/>
                </mxCell>
                <mxCell id="22" value="" style="edgeStyle=none;html=1;fontSize=18;strokeColor=#000000;" parent="1" source="23" target="24" edge="1">
                    <mxGeometry relative="1" as="geometry"/>
                </mxCell>
                <mxCell id="23" value="LightView" style="whiteSpace=wrap;html=1;fontSize=18;strokeColor=#36393d;fillColor=#f9f7ed;fontColor=#000000;" parent="1" vertex="1">
                    <mxGeometry x="479" y="835" width="120" height="60" as="geometry"/>
                </mxCell>
                <mxCell id="24" value="Led" style="whiteSpace=wrap;html=1;fontSize=18;strokeColor=#36393d;fillColor=#f9f7ed;fontColor=#000000;" parent="1" vertex="1">
                    <mxGeometry x="479" y="945" width="120" height="60" as="geometry"/>
                </mxCell>
                <mxCell id="31" value="" style="edgeStyle=none;html=1;strokeColor=#000000;" parent="1" source="26" target="23" edge="1">
                    <mxGeometry relative="1" as="geometry"/>
                </mxCell>
                <mxCell id="26" value="StandLight&lt;br&gt;Service" style="whiteSpace=wrap;html=1;fontSize=18;strokeColor=#36393d;fillColor=#f9f7ed;fontColor=#000000;" parent="1" vertex="1">
                    <mxGeometry x="479" y="715" width="120" height="60" as="geometry"/>
                </mxCell>
                <mxCell id="32" value="" style="edgeStyle=none;html=1;strokeColor=#000000;" parent="1" source="27" target="28" edge="1">
                    <mxGeometry relative="1" as="geometry"/>
                </mxCell>
                <mxCell id="27" value="Clock&lt;br&gt;Service" style="whiteSpace=wrap;html=1;fontSize=18;fillColor=#ffff88;strokeColor=#000000;fontColor=#000000;" parent="1" vertex="1">
                    <mxGeometry x="619" y="715" width="120" height="60" as="geometry"/>
                </mxCell>
                <mxCell id="30" value="" style="edgeStyle=none;html=1;strokeColor=#000000;" parent="1" source="28" target="29" edge="1">
                    <mxGeometry relative="1" as="geometry"/>
                </mxCell>
                <mxCell id="28" value="ClockView" style="whiteSpace=wrap;html=1;fontSize=18;fillColor=#ffff88;strokeColor=#000000;fontColor=#000000;" parent="1" vertex="1">
                    <mxGeometry x="619" y="835" width="120" height="60" as="geometry"/>
                </mxCell>
                <mxCell id="29" value="LCD" style="whiteSpace=wrap;html=1;fontSize=18;fillColor=#ffff88;strokeColor=#000000;fontColor=#000000;" parent="1" vertex="1">
                    <mxGeometry x="619" y="945" width="120" height="60" as="geometry"/>
                </mxCell>
                <mxCell id="35" value="5" style="text;html=1;resizable=0;autosize=1;align=center;verticalAlign=middle;points=[];fillColor=none;rounded=0;fontColor=#000000;" parent="1" vertex="1">
                    <mxGeometry x="549" y="915" width="20" height="20" as="geometry"/>
                </mxCell>
                <mxCell id="36" value="2" style="text;html=1;resizable=0;autosize=1;align=center;verticalAlign=middle;points=[];fillColor=none;rounded=0;fontColor=#000000;" parent="1" vertex="1">
                    <mxGeometry x="139" y="805" width="20" height="20" as="geometry"/>
                </mxCell>
                <mxCell id="37" value="ClockCheck" style="whiteSpace=wrap;html=1;fontSize=18;fillColor=#ffff88;strokeColor=#000000;fontColor=#000000;" parent="1" vertex="1">
                    <mxGeometry x="209" y="835" width="120" height="60" as="geometry"/>
                </mxCell>
                <mxCell id="39" value="&lt;font style=&quot;font-size: 14px&quot;&gt;스탠드 #2&lt;br&gt;1. 버튼1 : LED 밝기 조절&lt;br&gt;&lt;b&gt;2. 버튼2 : LCD(시계) back light ON/OFF&lt;/b&gt;&lt;/font&gt;" style="text;html=1;resizable=0;autosize=1;align=left;verticalAlign=middle;points=[];fillColor=none;strokeColor=none;rounded=0;fontColor=#000000;" parent="1" vertex="1">
                    <mxGeometry x="20" y="490" width="270" height="50" as="geometry"/>
                </mxCell>
                <mxCell id="40" value="&lt;font style=&quot;font-size: 14px&quot;&gt;스탠드#1&lt;br&gt;&lt;b&gt;1. 버튼1 : LED ON/OFF&lt;/b&gt;&lt;/font&gt;" style="text;html=1;resizable=0;autosize=1;align=left;verticalAlign=middle;points=[];fillColor=none;rounded=0;fontColor=#000000;" parent="1" vertex="1">
                    <mxGeometry x="20" y="30" width="160" height="40" as="geometry"/>
                </mxCell>
                <mxCell id="41" value="Button" style="whiteSpace=wrap;html=1;fontSize=18;fillColor=#f9f7ed;strokeColor=#36393d;fontColor=#000000;" parent="1" vertex="1">
                    <mxGeometry x="50" y="1520" width="120" height="60" as="geometry"/>
                </mxCell>
                <mxCell id="42" value="" style="edgeStyle=none;html=1;fontSize=18;entryX=0.5;entryY=0;entryDx=0;entryDy=0;rounded=0;fontColor=#000000;strokeColor=#000000;" parent="1" source="45" target="41" edge="1">
                    <mxGeometry relative="1" as="geometry">
                        <Array as="points">
                            <mxPoint x="189" y="1450"/>
                            <mxPoint x="110" y="1450"/>
                        </Array>
                    </mxGeometry>
                </mxCell>
                <mxCell id="43" value="" style="edgeStyle=none;html=1;fontSize=18;strokeColor=#000000;" parent="1" source="45" target="48" edge="1">
                    <mxGeometry relative="1" as="geometry"/>
                </mxCell>
                <mxCell id="44" style="edgeStyle=none;rounded=0;html=1;entryX=0.5;entryY=0;entryDx=0;entryDy=0;exitX=0.5;exitY=1;exitDx=0;exitDy=0;fontColor=#000000;strokeColor=#000000;" parent="1" source="45" target="61" edge="1">
                    <mxGeometry relative="1" as="geometry">
                        <Array as="points">
                            <mxPoint x="189" y="1450"/>
                            <mxPoint x="259" y="1450"/>
                        </Array>
                    </mxGeometry>
                </mxCell>
                <mxCell id="45" value="Listener" style="whiteSpace=wrap;html=1;fontSize=18;strokeColor=#36393d;fillColor=#f9f7ed;fontColor=#000000;" parent="1" vertex="1">
                    <mxGeometry x="129" y="1270" width="120" height="60" as="geometry"/>
                </mxCell>
                <mxCell id="46" style="edgeStyle=none;html=1;entryX=0.5;entryY=0;entryDx=0;entryDy=0;rounded=0;strokeColor=#000000;" parent="1" source="48" target="53" edge="1">
                    <mxGeometry relative="1" as="geometry">
                        <Array as="points">
                            <mxPoint x="599" y="1360"/>
                            <mxPoint x="529" y="1360"/>
                        </Array>
                    </mxGeometry>
                </mxCell>
                <mxCell id="47" style="edgeStyle=none;rounded=0;html=1;entryX=0.5;entryY=0;entryDx=0;entryDy=0;strokeColor=#000000;" parent="1" source="48" target="55" edge="1">
                    <mxGeometry relative="1" as="geometry">
                        <Array as="points">
                            <mxPoint x="599" y="1360"/>
                            <mxPoint x="669" y="1360"/>
                        </Array>
                    </mxGeometry>
                </mxCell>
                <mxCell id="48" value="Controller" style="whiteSpace=wrap;html=1;fontSize=18;strokeColor=#36393d;fillColor=#f9f7ed;fontColor=#000000;" parent="1" vertex="1">
                    <mxGeometry x="539" y="1270" width="120" height="60" as="geometry"/>
                </mxCell>
                <mxCell id="49" value="" style="edgeStyle=none;html=1;fontSize=18;strokeColor=#000000;" parent="1" source="50" target="51" edge="1">
                    <mxGeometry relative="1" as="geometry"/>
                </mxCell>
                <mxCell id="62" style="edgeStyle=none;html=1;exitX=0.5;exitY=1;exitDx=0;exitDy=0;strokeColor=#000000;entryX=0.35;entryY=0.033;entryDx=0;entryDy=0;entryPerimeter=0;rounded=0;" parent="1" source="50" target="58" edge="1">
                    <mxGeometry relative="1" as="geometry">
                        <mxPoint x="650" y="1770" as="targetPoint"/>
                        <Array as="points">
                            <mxPoint x="529" y="1670"/>
                            <mxPoint x="651" y="1670"/>
                        </Array>
                    </mxGeometry>
                </mxCell>
                <mxCell id="50" value="LightView" style="whiteSpace=wrap;html=1;fontSize=18;strokeColor=#36393d;fillColor=#ffff88;fontColor=#000000;" parent="1" vertex="1">
                    <mxGeometry x="469" y="1580" width="120" height="60" as="geometry"/>
                </mxCell>
                <mxCell id="51" value="Led" style="whiteSpace=wrap;html=1;fontSize=18;strokeColor=#36393d;fillColor=#f9f7ed;fontColor=#000000;" parent="1" vertex="1">
                    <mxGeometry x="469" y="1710" width="120" height="60" as="geometry"/>
                </mxCell>
                <mxCell id="53" value="StandLight&lt;br&gt;Service" style="whiteSpace=wrap;html=1;fontSize=18;strokeColor=#36393d;fillColor=#f9f7ed;fontColor=#000000;" parent="1" vertex="1">
                    <mxGeometry x="469" y="1390" width="120" height="60" as="geometry"/>
                </mxCell>
                <mxCell id="54" value="" style="edgeStyle=none;html=1;strokeColor=#000000;entryX=0.5;entryY=0;entryDx=0;entryDy=0;" parent="1" source="55" target="57" edge="1">
                    <mxGeometry relative="1" as="geometry">
                        <mxPoint x="669" y="1590" as="targetPoint"/>
                    </mxGeometry>
                </mxCell>
                <mxCell id="55" value="Clock&lt;br&gt;Service" style="whiteSpace=wrap;html=1;fontSize=18;fillColor=#f9f7ed;strokeColor=#36393d;fontColor=#000000;" parent="1" vertex="1">
                    <mxGeometry x="609" y="1390" width="120" height="60" as="geometry"/>
                </mxCell>
                <mxCell id="56" value="" style="edgeStyle=none;html=1;strokeColor=#000000;" parent="1" source="57" target="58" edge="1">
                    <mxGeometry relative="1" as="geometry"/>
                </mxCell>
                <mxCell id="57" value="ClockView" style="whiteSpace=wrap;html=1;fontSize=18;fillColor=#f9f7ed;strokeColor=#36393d;fontColor=#000000;" parent="1" vertex="1">
                    <mxGeometry x="609" y="1580" width="120" height="60" as="geometry"/>
                </mxCell>
                <mxCell id="58" value="LCD" style="whiteSpace=wrap;html=1;fontSize=18;fillColor=#f9f7ed;strokeColor=#36393d;fontColor=#000000;" parent="1" vertex="1">
                    <mxGeometry x="609" y="1710" width="120" height="60" as="geometry"/>
                </mxCell>
                <mxCell id="59" value="5" style="text;html=1;resizable=0;autosize=1;align=center;verticalAlign=middle;points=[];fillColor=none;rounded=0;fontColor=#000000;" parent="1" vertex="1">
                    <mxGeometry x="539" y="1690" width="20" height="20" as="geometry"/>
                </mxCell>
                <mxCell id="60" value="2" style="text;html=1;resizable=0;autosize=1;align=center;verticalAlign=middle;points=[];fillColor=none;rounded=0;fontColor=#000000;" parent="1" vertex="1">
                    <mxGeometry x="119" y="1500" width="20" height="20" as="geometry"/>
                </mxCell>
                <mxCell id="61" value="ClockCheck" style="whiteSpace=wrap;html=1;fontSize=18;fillColor=#f9f7ed;strokeColor=#36393d;fontColor=#000000;" parent="1" vertex="1">
                    <mxGeometry x="199" y="1520" width="120" height="60" as="geometry"/>
                </mxCell>
                <mxCell id="63" value="&lt;font&gt;&lt;font style=&quot;font-size: 14px&quot;&gt;스탠드 #3&lt;br&gt;1. 버튼1 : LED 밝기 조절&lt;br&gt;2. 버튼2 : LCD(시계) back light ON/OFF&lt;br&gt;&lt;b&gt;3. LCD 0 : LED 모드 상태 표시 (off,1,2,3,4,5)&lt;/b&gt;&lt;br&gt;&amp;nbsp; &amp;nbsp; LCD 1: 시계 (hh:mm:ss)&lt;/font&gt;&lt;br&gt;&lt;/font&gt;" style="text;html=1;resizable=0;autosize=1;align=left;verticalAlign=middle;points=[];fillColor=none;strokeColor=none;rounded=0;fontColor=#000000;" parent="1" vertex="1">
                    <mxGeometry x="10" y="1180" width="300" height="80" as="geometry"/>
                </mxCell>
                <mxCell id="86" value="Button" style="whiteSpace=wrap;html=1;fontSize=18;fillColor=#ffff88;strokeColor=#36393d;fontColor=#000000;" parent="1" vertex="1">
                    <mxGeometry x="139" y="2080" width="120" height="60" as="geometry"/>
                </mxCell>
                <mxCell id="87" value="" style="edgeStyle=none;html=1;fontSize=18;entryX=0.5;entryY=0;entryDx=0;entryDy=0;rounded=0;fontColor=#000000;strokeColor=#000000;" parent="1" source="90" target="86" edge="1">
                    <mxGeometry relative="1" as="geometry">
                        <Array as="points">
                            <mxPoint x="199" y="2010"/>
                        </Array>
                    </mxGeometry>
                </mxCell>
                <mxCell id="88" value="" style="edgeStyle=none;html=1;fontSize=18;strokeColor=#000000;" parent="1" source="90" target="93" edge="1">
                    <mxGeometry relative="1" as="geometry"/>
                </mxCell>
                <mxCell id="89" style="edgeStyle=none;rounded=0;html=1;entryX=0.5;entryY=0;entryDx=0;entryDy=0;exitX=0.5;exitY=1;exitDx=0;exitDy=0;fontColor=#000000;strokeColor=#000000;" parent="1" source="90" target="107" edge="1">
                    <mxGeometry relative="1" as="geometry">
                        <Array as="points">
                            <mxPoint x="199" y="1980"/>
                            <mxPoint x="269" y="1980"/>
                            <mxPoint x="330" y="1980"/>
                        </Array>
                    </mxGeometry>
                </mxCell>
                <mxCell id="90" value="Listener" style="whiteSpace=wrap;html=1;fontSize=18;strokeColor=#36393d;fillColor=#f9f7ed;fontColor=#000000;" parent="1" vertex="1">
                    <mxGeometry x="139" y="1830" width="120" height="60" as="geometry"/>
                </mxCell>
                <mxCell id="91" style="edgeStyle=none;html=1;entryX=0.5;entryY=0;entryDx=0;entryDy=0;rounded=0;strokeColor=#000000;" parent="1" source="93" target="99" edge="1">
                    <mxGeometry relative="1" as="geometry">
                        <Array as="points">
                            <mxPoint x="609" y="1920"/>
                            <mxPoint x="539" y="1920"/>
                        </Array>
                    </mxGeometry>
                </mxCell>
                <mxCell id="92" style="edgeStyle=none;rounded=0;html=1;entryX=0.5;entryY=0;entryDx=0;entryDy=0;strokeColor=#000000;" parent="1" source="93" target="101" edge="1">
                    <mxGeometry relative="1" as="geometry">
                        <Array as="points">
                            <mxPoint x="609" y="1920"/>
                            <mxPoint x="679" y="1920"/>
                        </Array>
                    </mxGeometry>
                </mxCell>
                <mxCell id="93" value="Controller" style="whiteSpace=wrap;html=1;fontSize=18;strokeColor=#36393d;fillColor=#f9f7ed;fontColor=#000000;" parent="1" vertex="1">
                    <mxGeometry x="549" y="1830" width="120" height="60" as="geometry"/>
                </mxCell>
                <mxCell id="94" value="" style="edgeStyle=none;html=1;fontSize=18;strokeColor=#000000;" parent="1" source="96" target="97" edge="1">
                    <mxGeometry relative="1" as="geometry"/>
                </mxCell>
                <mxCell id="95" style="edgeStyle=none;html=1;exitX=0.5;exitY=1;exitDx=0;exitDy=0;strokeColor=#000000;entryX=0.35;entryY=0.033;entryDx=0;entryDy=0;entryPerimeter=0;rounded=0;" parent="1" source="96" target="104" edge="1">
                    <mxGeometry relative="1" as="geometry">
                        <mxPoint x="660" y="2318" as="targetPoint"/>
                        <Array as="points">
                            <mxPoint x="539" y="2218"/>
                            <mxPoint x="661" y="2218"/>
                        </Array>
                    </mxGeometry>
                </mxCell>
                <mxCell id="96" value="LightView" style="whiteSpace=wrap;html=1;fontSize=18;strokeColor=#36393d;fillColor=#f9f7ed;fontColor=#000000;" parent="1" vertex="1">
                    <mxGeometry x="479" y="2140" width="120" height="60" as="geometry"/>
                </mxCell>
                <mxCell id="97" value="Led" style="whiteSpace=wrap;html=1;fontSize=18;strokeColor=#36393d;fillColor=#f9f7ed;fontColor=#000000;" parent="1" vertex="1">
                    <mxGeometry x="479" y="2258" width="120" height="60" as="geometry"/>
                </mxCell>
                <mxCell id="99" value="StandLight&lt;br&gt;Service" style="whiteSpace=wrap;html=1;fontSize=18;strokeColor=#36393d;fillColor=#f9f7ed;fontColor=#000000;" parent="1" vertex="1">
                    <mxGeometry x="479" y="1950" width="120" height="60" as="geometry"/>
                </mxCell>
                <mxCell id="100" value="" style="edgeStyle=none;html=1;strokeColor=#000000;" parent="1" source="101" target="103" edge="1">
                    <mxGeometry relative="1" as="geometry"/>
                </mxCell>
                <mxCell id="101" value="Clock&lt;br&gt;Service" style="whiteSpace=wrap;html=1;fontSize=18;fillColor=#f9f7ed;strokeColor=#36393d;fontColor=#000000;" parent="1" vertex="1">
                    <mxGeometry x="619" y="1950" width="120" height="60" as="geometry"/>
                </mxCell>
                <mxCell id="102" value="" style="edgeStyle=none;html=1;strokeColor=#000000;" parent="1" source="103" target="104" edge="1">
                    <mxGeometry relative="1" as="geometry"/>
                </mxCell>
                <mxCell id="103" value="ClockView" style="whiteSpace=wrap;html=1;fontSize=18;fillColor=#f9f7ed;strokeColor=#36393d;fontColor=#000000;" parent="1" vertex="1">
                    <mxGeometry x="619" y="2128" width="120" height="60" as="geometry"/>
                </mxCell>
                <mxCell id="104" value="LCD" style="whiteSpace=wrap;html=1;fontSize=18;fillColor=#f9f7ed;strokeColor=#36393d;fontColor=#000000;" parent="1" vertex="1">
                    <mxGeometry x="619" y="2258" width="120" height="60" as="geometry"/>
                </mxCell>
                <mxCell id="105" value="5" style="text;html=1;resizable=0;autosize=1;align=center;verticalAlign=middle;points=[];fillColor=none;rounded=0;fontColor=#000000;" parent="1" vertex="1">
                    <mxGeometry x="549" y="2238" width="20" height="20" as="geometry"/>
                </mxCell>
                <mxCell id="106" value="2" style="text;html=1;resizable=0;autosize=1;align=center;verticalAlign=middle;points=[];fillColor=none;rounded=0;fontColor=#000000;" parent="1" vertex="1">
                    <mxGeometry x="210" y="2060" width="20" height="20" as="geometry"/>
                </mxCell>
                <mxCell id="107" value="ClockCheck" style="whiteSpace=wrap;html=1;fontSize=18;fillColor=#f9f7ed;strokeColor=#36393d;fontColor=#000000;" parent="1" vertex="1">
                    <mxGeometry x="270" y="2080" width="120" height="60" as="geometry"/>
                </mxCell>
                <mxCell id="108" value="&lt;font&gt;&lt;font style=&quot;font-size: 14px&quot;&gt;스탠드 #4&lt;br&gt;1. 버튼1 : LED 밝기 조절&lt;br&gt;&lt;b&gt;2. 버튼2 :&lt;/b&gt; &lt;b&gt;LCD(시계) back light ON/OFF&lt;/b&gt;&lt;br&gt;3. LCD 0 : LED 모드 상태 표시 (off,1,2,3,4,5)&lt;br&gt;&amp;nbsp; &amp;nbsp; LCD 1: 시계 (hh:mm:ss)&lt;/font&gt;&lt;br&gt;&lt;/font&gt;" style="text;html=1;resizable=0;autosize=1;align=left;verticalAlign=middle;points=[];fillColor=none;strokeColor=none;rounded=0;fontColor=#000000;" parent="1" vertex="1">
                    <mxGeometry x="29" y="1720" width="290" height="80" as="geometry"/>
                </mxCell>
                <mxCell id="Rb2rSseCKVTXl8TNKAfo-113" value="Button" style="whiteSpace=wrap;html=1;fontSize=18;fillColor=#f9f7ed;strokeColor=#36393d;fontColor=#000000;" parent="1" vertex="1">
                    <mxGeometry x="25" y="2930" width="120" height="60" as="geometry"/>
                </mxCell>
                <mxCell id="Rb2rSseCKVTXl8TNKAfo-114" value="" style="edgeStyle=none;html=1;fontSize=18;entryX=0.5;entryY=0;entryDx=0;entryDy=0;rounded=0;fontColor=#000000;strokeColor=#000000;" parent="1" source="Rb2rSseCKVTXl8TNKAfo-118" target="Rb2rSseCKVTXl8TNKAfo-113" edge="1">
                    <mxGeometry relative="1" as="geometry">
                        <Array as="points">
                            <mxPoint x="215" y="2790"/>
                            <mxPoint x="85" y="2790"/>
                        </Array>
                    </mxGeometry>
                </mxCell>
                <mxCell id="Rb2rSseCKVTXl8TNKAfo-115" value="" style="edgeStyle=none;html=1;fontSize=18;strokeColor=#000000;" parent="1" source="Rb2rSseCKVTXl8TNKAfo-118" target="Rb2rSseCKVTXl8TNKAfo-121" edge="1">
                    <mxGeometry relative="1" as="geometry"/>
                </mxCell>
                <mxCell id="Rb2rSseCKVTXl8TNKAfo-116" style="edgeStyle=none;rounded=0;html=1;entryX=0.5;entryY=0;entryDx=0;entryDy=0;exitX=0.5;exitY=1;exitDx=0;exitDy=0;fontColor=#000000;strokeColor=#000000;" parent="1" source="Rb2rSseCKVTXl8TNKAfo-118" target="Rb2rSseCKVTXl8TNKAfo-135" edge="1">
                    <mxGeometry relative="1" as="geometry">
                        <Array as="points"/>
                    </mxGeometry>
                </mxCell>
                <mxCell id="Rb2rSseCKVTXl8TNKAfo-139" style="edgeStyle=orthogonalEdgeStyle;rounded=0;html=1;exitX=0.5;exitY=1;exitDx=0;exitDy=0;fontSize=14;fontColor=#000000;strokeColor=#000000;" parent="1" source="Rb2rSseCKVTXl8TNKAfo-118" target="Rb2rSseCKVTXl8TNKAfo-138" edge="1">
                    <mxGeometry relative="1" as="geometry">
                        <Array as="points">
                            <mxPoint x="215" y="2790"/>
                            <mxPoint x="339" y="2790"/>
                        </Array>
                    </mxGeometry>
                </mxCell>
                <mxCell id="124" style="edgeStyle=none;html=1;entryX=0;entryY=0.5;entryDx=0;entryDy=0;fontColor=#000000;strokeColor=#000000;exitX=0.5;exitY=0;exitDx=0;exitDy=0;rounded=0;" parent="1" source="Rb2rSseCKVTXl8TNKAfo-118" target="123" edge="1">
                    <mxGeometry relative="1" as="geometry">
                        <Array as="points">
                            <mxPoint x="215" y="2520"/>
                        </Array>
                    </mxGeometry>
                </mxCell>
                <mxCell id="Rb2rSseCKVTXl8TNKAfo-118" value="Listener" style="whiteSpace=wrap;html=1;fontSize=18;strokeColor=#36393d;fillColor=#f9f7ed;fontColor=#000000;" parent="1" vertex="1">
                    <mxGeometry x="155" y="2580" width="120" height="60" as="geometry"/>
                </mxCell>
                <mxCell id="Rb2rSseCKVTXl8TNKAfo-119" style="edgeStyle=none;html=1;entryX=0.5;entryY=0;entryDx=0;entryDy=0;rounded=0;strokeColor=#000000;" parent="1" source="Rb2rSseCKVTXl8TNKAfo-121" target="Rb2rSseCKVTXl8TNKAfo-127" edge="1">
                    <mxGeometry relative="1" as="geometry">
                        <Array as="points">
                            <mxPoint x="616" y="2670"/>
                            <mxPoint x="479" y="2670"/>
                        </Array>
                    </mxGeometry>
                </mxCell>
                <mxCell id="117" style="edgeStyle=orthogonalEdgeStyle;html=1;exitX=0.5;exitY=1;exitDx=0;exitDy=0;entryX=0.5;entryY=0;entryDx=0;entryDy=0;fontColor=#000000;rounded=0;strokeColor=#000000;" parent="1" source="Rb2rSseCKVTXl8TNKAfo-121" target="113" edge="1">
                    <mxGeometry relative="1" as="geometry">
                        <Array as="points">
                            <mxPoint x="616" y="2670"/>
                            <mxPoint x="746" y="2670"/>
                        </Array>
                    </mxGeometry>
                </mxCell>
                <mxCell id="125" style="edgeStyle=none;rounded=0;html=1;entryX=0.5;entryY=1;entryDx=0;entryDy=0;fontColor=#000000;strokeColor=#000000;exitX=0.5;exitY=0;exitDx=0;exitDy=0;" parent="1" source="Rb2rSseCKVTXl8TNKAfo-121" target="123" edge="1">
                    <mxGeometry relative="1" as="geometry">
                        <Array as="points"/>
                    </mxGeometry>
                </mxCell>
                <mxCell id="127" style="edgeStyle=none;rounded=0;html=1;entryX=0.5;entryY=0;entryDx=0;entryDy=0;fontColor=#000000;strokeColor=#000000;" parent="1" source="Rb2rSseCKVTXl8TNKAfo-121" target="Rb2rSseCKVTXl8TNKAfo-129" edge="1">
                    <mxGeometry relative="1" as="geometry"/>
                </mxCell>
                <mxCell id="Rb2rSseCKVTXl8TNKAfo-121" value="Controller" style="whiteSpace=wrap;html=1;fontSize=18;strokeColor=#36393d;fillColor=#f9f7ed;fontColor=#000000;" parent="1" vertex="1">
                    <mxGeometry x="556" y="2580" width="120" height="60" as="geometry"/>
                </mxCell>
                <mxCell id="Rb2rSseCKVTXl8TNKAfo-122" value="" style="edgeStyle=none;html=1;fontSize=18;strokeColor=#000000;" parent="1" source="Rb2rSseCKVTXl8TNKAfo-124" target="Rb2rSseCKVTXl8TNKAfo-125" edge="1">
                    <mxGeometry relative="1" as="geometry"/>
                </mxCell>
                <mxCell id="Rb2rSseCKVTXl8TNKAfo-123" style="edgeStyle=none;html=1;exitX=0.5;exitY=1;exitDx=0;exitDy=0;strokeColor=#000000;entryX=0.35;entryY=0.033;entryDx=0;entryDy=0;entryPerimeter=0;rounded=0;" parent="1" source="Rb2rSseCKVTXl8TNKAfo-124" target="Rb2rSseCKVTXl8TNKAfo-132" edge="1">
                    <mxGeometry relative="1" as="geometry">
                        <mxPoint x="596" y="2990" as="targetPoint"/>
                        <Array as="points">
                            <mxPoint x="479" y="2990"/>
                            <mxPoint x="597" y="2990"/>
                        </Array>
                    </mxGeometry>
                </mxCell>
                <mxCell id="172" style="edgeStyle=none;rounded=0;html=1;entryX=0.5;entryY=1;entryDx=0;entryDy=0;fontSize=14;fontColor=#000000;strokeColor=#000000;exitX=0.175;exitY=-0.008;exitDx=0;exitDy=0;exitPerimeter=0;" parent="1" source="Rb2rSseCKVTXl8TNKAfo-124" target="170" edge="1">
                    <mxGeometry relative="1" as="geometry">
                        <Array as="points">
                            <mxPoint x="440" y="2880"/>
                        </Array>
                    </mxGeometry>
                </mxCell>
                <mxCell id="Rb2rSseCKVTXl8TNKAfo-124" value="LightView" style="whiteSpace=wrap;html=1;fontSize=18;strokeColor=#36393d;fillColor=#f9f7ed;fontColor=#000000;" parent="1" vertex="1">
                    <mxGeometry x="419" y="2900" width="120" height="60" as="geometry"/>
                </mxCell>
                <mxCell id="Rb2rSseCKVTXl8TNKAfo-125" value="Led" style="whiteSpace=wrap;html=1;fontSize=18;strokeColor=#36393d;fillColor=#f9f7ed;fontColor=#000000;" parent="1" vertex="1">
                    <mxGeometry x="419" y="3030" width="120" height="60" as="geometry"/>
                </mxCell>
                <mxCell id="Rb2rSseCKVTXl8TNKAfo-126" value="" style="edgeStyle=none;html=1;strokeColor=#000000;exitX=0.861;exitY=0.987;exitDx=0;exitDy=0;exitPerimeter=0;entryX=0.858;entryY=-0.026;entryDx=0;entryDy=0;entryPerimeter=0;" parent="1" source="Rb2rSseCKVTXl8TNKAfo-127" target="Rb2rSseCKVTXl8TNKAfo-124" edge="1">
                    <mxGeometry relative="1" as="geometry"/>
                </mxCell>
                <mxCell id="171" style="edgeStyle=none;rounded=0;html=1;entryX=0.5;entryY=0;entryDx=0;entryDy=0;fontSize=14;fontColor=#000000;strokeColor=#000000;exitX=0.175;exitY=0.987;exitDx=0;exitDy=0;exitPerimeter=0;" parent="1" source="Rb2rSseCKVTXl8TNKAfo-127" target="170" edge="1">
                    <mxGeometry relative="1" as="geometry">
                        <Array as="points">
                            <mxPoint x="440" y="2780"/>
                        </Array>
                    </mxGeometry>
                </mxCell>
                <mxCell id="Rb2rSseCKVTXl8TNKAfo-127" value="StandLight&lt;br&gt;Service" style="whiteSpace=wrap;html=1;fontSize=18;strokeColor=#36393d;fillColor=#f9f7ed;fontColor=#000000;" parent="1" vertex="1">
                    <mxGeometry x="419" y="2700" width="120" height="60" as="geometry"/>
                </mxCell>
                <mxCell id="Rb2rSseCKVTXl8TNKAfo-128" value="" style="edgeStyle=none;html=1;strokeColor=#000000;" parent="1" source="Rb2rSseCKVTXl8TNKAfo-129" target="Rb2rSseCKVTXl8TNKAfo-131" edge="1">
                    <mxGeometry relative="1" as="geometry"/>
                </mxCell>
                <mxCell id="Rb2rSseCKVTXl8TNKAfo-129" value="Clock&lt;br&gt;Service" style="whiteSpace=wrap;html=1;fontSize=18;fillColor=#f9f7ed;strokeColor=#36393d;fontColor=#000000;" parent="1" vertex="1">
                    <mxGeometry x="556" y="2700" width="120" height="60" as="geometry"/>
                </mxCell>
                <mxCell id="Rb2rSseCKVTXl8TNKAfo-130" value="" style="edgeStyle=none;html=1;strokeColor=#000000;" parent="1" source="Rb2rSseCKVTXl8TNKAfo-131" target="Rb2rSseCKVTXl8TNKAfo-132" edge="1">
                    <mxGeometry relative="1" as="geometry"/>
                </mxCell>
                <mxCell id="Rb2rSseCKVTXl8TNKAfo-131" value="ClockView" style="whiteSpace=wrap;html=1;fontSize=18;fillColor=#f9f7ed;strokeColor=#36393d;fontColor=#000000;" parent="1" vertex="1">
                    <mxGeometry x="556" y="2900" width="120" height="60" as="geometry"/>
                </mxCell>
                <mxCell id="Rb2rSseCKVTXl8TNKAfo-132" value="LCD" style="whiteSpace=wrap;html=1;fontSize=18;fillColor=#f9f7ed;strokeColor=#36393d;fontColor=#000000;" parent="1" vertex="1">
                    <mxGeometry x="555" y="3030" width="120" height="60" as="geometry"/>
                </mxCell>
                <mxCell id="Rb2rSseCKVTXl8TNKAfo-133" value="5" style="text;html=1;resizable=0;autosize=1;align=center;verticalAlign=middle;points=[];fillColor=none;rounded=0;fontColor=#000000;" parent="1" vertex="1">
                    <mxGeometry x="490" y="3010" width="20" height="20" as="geometry"/>
                </mxCell>
                <mxCell id="Rb2rSseCKVTXl8TNKAfo-134" value="2" style="text;html=1;resizable=0;autosize=1;align=center;verticalAlign=middle;points=[];fillColor=none;rounded=0;fontColor=#000000;" parent="1" vertex="1">
                    <mxGeometry x="90" y="2910" width="20" height="20" as="geometry"/>
                </mxCell>
                <mxCell id="Rb2rSseCKVTXl8TNKAfo-135" value="ClockCheck" style="whiteSpace=wrap;html=1;fontSize=18;fillColor=#f9f7ed;strokeColor=#36393d;fontColor=#000000;" parent="1" vertex="1">
                    <mxGeometry x="155" y="2930" width="120" height="60" as="geometry"/>
                </mxCell>
                <mxCell id="Rb2rSseCKVTXl8TNKAfo-136" value="&lt;font&gt;&lt;font style=&quot;font-size: 14px&quot;&gt;&lt;font&gt;&lt;font&gt;스탠드 #5&lt;br&gt;1. 버튼1 : LED 밝기 조절&lt;br&gt;2. 버튼2 : LCD(시계) back light ON/OFF&lt;br&gt;3. LCD 0 : LED 모드 상태 표시 (off,1,2,3,4,5)&lt;br&gt;&amp;nbsp; &amp;nbsp; LCD 1: 시계 (hh:mm:ss)&lt;br&gt;&lt;/font&gt;&lt;b&gt;4. 온습도 센서 (LCD : 온도, 습도)&lt;br&gt;&lt;/b&gt;&lt;/font&gt;&lt;b&gt;&lt;span style=&quot;white-space: pre&quot;&gt;&#9;&lt;/span&gt;온도가 높으면 warning message LCD 출력 + LCD LIGHT OFF MODE&lt;/b&gt;&lt;/font&gt;&lt;br&gt;&lt;/font&gt;" style="text;html=1;resizable=0;autosize=1;align=left;verticalAlign=middle;points=[];fillColor=none;strokeColor=none;rounded=0;fontColor=#000000;" parent="1" vertex="1">
                    <mxGeometry x="25" y="2355" width="490" height="100" as="geometry"/>
                </mxCell>
                <mxCell id="Rb2rSseCKVTXl8TNKAfo-138" value="DHT11" style="whiteSpace=wrap;html=1;fontSize=18;fillColor=#ffff88;strokeColor=#36393d;fontColor=#000000;" parent="1" vertex="1">
                    <mxGeometry x="279" y="2930" width="120" height="60" as="geometry"/>
                </mxCell>
                <mxCell id="120" value="" style="edgeStyle=orthogonalEdgeStyle;rounded=0;html=1;fontColor=#000000;strokeColor=#000000;" parent="1" source="113" target="114" edge="1">
                    <mxGeometry relative="1" as="geometry"/>
                </mxCell>
                <mxCell id="126" style="edgeStyle=none;rounded=0;html=1;entryX=1;entryY=0.5;entryDx=0;entryDy=0;fontColor=#000000;strokeColor=#000000;exitX=0.621;exitY=0.003;exitDx=0;exitDy=0;exitPerimeter=0;" parent="1" source="113" target="123" edge="1">
                    <mxGeometry relative="1" as="geometry">
                        <mxPoint x="760" y="2690" as="sourcePoint"/>
                        <Array as="points">
                            <mxPoint x="760" y="2520"/>
                        </Array>
                    </mxGeometry>
                </mxCell>
                <mxCell id="113" value="TempHumid&lt;br&gt;Service" style="whiteSpace=wrap;html=1;fontSize=18;fillColor=#ffff88;strokeColor=#36393d;fontColor=#000000;" parent="1" vertex="1">
                    <mxGeometry x="686" y="2700" width="120" height="60" as="geometry"/>
                </mxCell>
                <mxCell id="122" style="edgeStyle=orthogonalEdgeStyle;rounded=0;html=1;entryX=0.667;entryY=0.006;entryDx=0;entryDy=0;entryPerimeter=0;fontColor=#000000;strokeColor=#000000;" parent="1" source="114" target="Rb2rSseCKVTXl8TNKAfo-132" edge="1">
                    <mxGeometry relative="1" as="geometry">
                        <Array as="points">
                            <mxPoint x="746" y="2990"/>
                            <mxPoint x="635" y="2990"/>
                        </Array>
                    </mxGeometry>
                </mxCell>
                <mxCell id="129" style="edgeStyle=none;rounded=0;html=1;entryX=0.5;entryY=0;entryDx=0;entryDy=0;fontColor=#000000;strokeColor=#000000;" parent="1" source="114" target="128" edge="1">
                    <mxGeometry relative="1" as="geometry"/>
                </mxCell>
                <mxCell id="114" value="TempHumid&lt;br&gt;View" style="whiteSpace=wrap;html=1;fontSize=18;fillColor=#ffff88;strokeColor=#36393d;fontColor=#000000;" parent="1" vertex="1">
                    <mxGeometry x="686" y="2900" width="120" height="60" as="geometry"/>
                </mxCell>
                <mxCell id="123" value="DHT_Data" style="whiteSpace=wrap;html=1;fontSize=18;strokeColor=#36393d;fillColor=#f9f7ed;fontColor=#000000;" parent="1" vertex="1">
                    <mxGeometry x="556" y="2490" width="120" height="60" as="geometry"/>
                </mxCell>
                <mxCell id="128" value="Minitor" style="whiteSpace=wrap;html=1;fontSize=18;fillColor=#f9f7ed;strokeColor=#36393d;fontColor=#000000;" parent="1" vertex="1">
                    <mxGeometry x="686" y="3030" width="120" height="60" as="geometry"/>
                </mxCell>
                <mxCell id="130" value="&lt;font&gt;&lt;font style=&quot;font-size: 14px&quot;&gt;&lt;font&gt;&lt;font&gt;&lt;font&gt;스탠드 #6&lt;br&gt;1. 버튼1 : LED 밝기 조절&lt;br&gt;2. 버튼2 : LCD(시계) back light ON/OFF&lt;br&gt;3. LCD 0 : LED 모드 상태 표시 (off,1,2,3,4,5)&lt;br&gt;&amp;nbsp; &amp;nbsp; LCD 1: 시계 (hh:mm:ss)&lt;br&gt;&lt;/font&gt;4. 온습도 센서 (LCD : 온도, 습도)&lt;br&gt;&lt;/font&gt;&lt;span&gt;&#9;&lt;/span&gt;온도가 높으면 warning message LCD 출력 + LCD LIGHT OFF MODE&lt;br&gt;&lt;/font&gt;&lt;b&gt;5. 초음파센서 : 사용자 부재시 LIGHT OFF, 사용자 접근시&lt;/b&gt;&lt;b&gt;LIGHT&amp;nbsp;&lt;/b&gt;&lt;b&gt;ON&lt;/b&gt;&lt;/font&gt;&lt;br&gt;&lt;/font&gt;" style="text;html=1;resizable=0;autosize=1;align=left;verticalAlign=middle;points=[];fillColor=none;strokeColor=none;rounded=0;fontColor=#000000;" parent="1" vertex="1">
                    <mxGeometry x="10" y="3545" width="450" height="120" as="geometry"/>
                </mxCell>
                <mxCell id="170" value="&amp;lt;&amp;lt;enum&amp;gt;&amp;gt;&lt;br&gt;lightState" style="whiteSpace=wrap;html=1;fontSize=18;strokeColor=#36393d;fillColor=#f9f7ed;fontColor=#000000;" parent="1" vertex="1">
                    <mxGeometry x="380" y="2800" width="120" height="60" as="geometry"/>
                </mxCell>
                <mxCell id="174" value="" style="edgeStyle=none;html=1;fontSize=18;entryX=0.5;entryY=0;entryDx=0;entryDy=0;rounded=0;fontColor=#000000;strokeColor=#000000;" parent="1" source="179" target="213" edge="1">
                    <mxGeometry relative="1" as="geometry">
                        <Array as="points">
                            <mxPoint x="218" y="4020"/>
                            <mxPoint x="53" y="4020"/>
                        </Array>
                        <mxPoint x="88" y="4160" as="targetPoint"/>
                    </mxGeometry>
                </mxCell>
                <mxCell id="175" value="" style="edgeStyle=none;html=1;fontSize=18;strokeColor=#000000;" parent="1" source="179" target="184" edge="1">
                    <mxGeometry relative="1" as="geometry"/>
                </mxCell>
                <mxCell id="176" style="edgeStyle=none;rounded=0;html=1;entryX=0.5;entryY=0;entryDx=0;entryDy=0;exitX=0.5;exitY=1;exitDx=0;exitDy=0;fontColor=#000000;strokeColor=#000000;" parent="1" source="179" target="214" edge="1">
                    <mxGeometry relative="1" as="geometry">
                        <Array as="points">
                            <mxPoint x="218" y="4020"/>
                            <mxPoint x="156" y="4020"/>
                        </Array>
                        <mxPoint x="218" y="4160" as="targetPoint"/>
                    </mxGeometry>
                </mxCell>
                <mxCell id="177" style="edgeStyle=orthogonalEdgeStyle;rounded=0;html=1;exitX=0.5;exitY=1;exitDx=0;exitDy=0;fontSize=14;fontColor=#000000;strokeColor=#000000;entryX=0.5;entryY=0;entryDx=0;entryDy=0;" parent="1" source="179" target="215" edge="1">
                    <mxGeometry relative="1" as="geometry">
                        <Array as="points">
                            <mxPoint x="218" y="4020"/>
                            <mxPoint x="263" y="4020"/>
                        </Array>
                        <mxPoint x="342.0909090909088" y="4160" as="targetPoint"/>
                    </mxGeometry>
                </mxCell>
                <mxCell id="178" style="edgeStyle=none;html=1;entryX=0;entryY=0.5;entryDx=0;entryDy=0;fontColor=#000000;strokeColor=#000000;exitX=0.5;exitY=0;exitDx=0;exitDy=0;rounded=0;" parent="1" source="179" target="208" edge="1">
                    <mxGeometry relative="1" as="geometry">
                        <Array as="points">
                            <mxPoint x="218" y="3750"/>
                        </Array>
                    </mxGeometry>
                </mxCell>
                <mxCell id="217" style="edgeStyle=none;html=1;entryX=0.5;entryY=0;entryDx=0;entryDy=0;strokeColor=#000000;rounded=0;" parent="1" source="179" target="216" edge="1">
                    <mxGeometry relative="1" as="geometry">
                        <Array as="points">
                            <mxPoint x="218" y="4020"/>
                            <mxPoint x="364" y="4020"/>
                        </Array>
                    </mxGeometry>
                </mxCell>
                <mxCell id="179" value="Listener" style="whiteSpace=wrap;html=1;fontSize=18;strokeColor=#36393d;fillColor=#f9f7ed;fontColor=#000000;" parent="1" vertex="1">
                    <mxGeometry x="158" y="3810" width="120" height="60" as="geometry"/>
                </mxCell>
                <mxCell id="180" style="edgeStyle=none;html=1;entryX=0.5;entryY=0;entryDx=0;entryDy=0;rounded=0;strokeColor=#000000;" parent="1" source="184" target="192" edge="1">
                    <mxGeometry relative="1" as="geometry">
                        <Array as="points">
                            <mxPoint x="619" y="3900"/>
                            <mxPoint x="482" y="3900"/>
                        </Array>
                    </mxGeometry>
                </mxCell>
                <mxCell id="181" style="edgeStyle=orthogonalEdgeStyle;html=1;exitX=0.5;exitY=1;exitDx=0;exitDy=0;entryX=0.5;entryY=0;entryDx=0;entryDy=0;fontColor=#000000;rounded=0;strokeColor=#000000;" parent="1" source="184" target="204" edge="1">
                    <mxGeometry relative="1" as="geometry">
                        <Array as="points">
                            <mxPoint x="619" y="3900"/>
                            <mxPoint x="749" y="3900"/>
                        </Array>
                    </mxGeometry>
                </mxCell>
                <mxCell id="182" style="edgeStyle=none;rounded=0;html=1;entryX=0.5;entryY=1;entryDx=0;entryDy=0;fontColor=#000000;strokeColor=#000000;exitX=0.5;exitY=0;exitDx=0;exitDy=0;" parent="1" source="184" target="208" edge="1">
                    <mxGeometry relative="1" as="geometry">
                        <Array as="points"/>
                    </mxGeometry>
                </mxCell>
                <mxCell id="183" style="edgeStyle=none;rounded=0;html=1;entryX=0.5;entryY=0;entryDx=0;entryDy=0;fontColor=#000000;strokeColor=#000000;" parent="1" source="184" target="194" edge="1">
                    <mxGeometry relative="1" as="geometry"/>
                </mxCell>
                <mxCell id="184" value="Controller" style="whiteSpace=wrap;html=1;fontSize=18;strokeColor=#36393d;fillColor=#f9f7ed;fontColor=#000000;" parent="1" vertex="1">
                    <mxGeometry x="559" y="3810" width="120" height="60" as="geometry"/>
                </mxCell>
                <mxCell id="185" value="" style="edgeStyle=none;html=1;fontSize=18;strokeColor=#000000;" parent="1" source="188" target="189" edge="1">
                    <mxGeometry relative="1" as="geometry"/>
                </mxCell>
                <mxCell id="186" style="edgeStyle=none;html=1;exitX=0.5;exitY=1;exitDx=0;exitDy=0;strokeColor=#000000;entryX=0.35;entryY=0.033;entryDx=0;entryDy=0;entryPerimeter=0;rounded=0;" parent="1" source="188" target="197" edge="1">
                    <mxGeometry relative="1" as="geometry">
                        <mxPoint x="599" y="4220" as="targetPoint"/>
                        <Array as="points">
                            <mxPoint x="482" y="4220"/>
                            <mxPoint x="600" y="4220"/>
                        </Array>
                    </mxGeometry>
                </mxCell>
                <mxCell id="187" style="edgeStyle=none;rounded=0;html=1;entryX=0.5;entryY=1;entryDx=0;entryDy=0;fontSize=14;fontColor=#000000;strokeColor=#000000;exitX=0.175;exitY=-0.008;exitDx=0;exitDy=0;exitPerimeter=0;" parent="1" source="188" target="210" edge="1">
                    <mxGeometry relative="1" as="geometry">
                        <Array as="points">
                            <mxPoint x="443" y="4110"/>
                        </Array>
                    </mxGeometry>
                </mxCell>
                <mxCell id="188" value="LightView" style="whiteSpace=wrap;html=1;fontSize=18;strokeColor=#36393d;fillColor=#f9f7ed;fontColor=#000000;" parent="1" vertex="1">
                    <mxGeometry x="422" y="4130" width="120" height="60" as="geometry"/>
                </mxCell>
                <mxCell id="189" value="Led" style="whiteSpace=wrap;html=1;fontSize=18;strokeColor=#36393d;fillColor=#f9f7ed;fontColor=#000000;" parent="1" vertex="1">
                    <mxGeometry x="422" y="4260" width="120" height="60" as="geometry"/>
                </mxCell>
                <mxCell id="190" value="" style="edgeStyle=none;html=1;strokeColor=#000000;exitX=0.861;exitY=0.987;exitDx=0;exitDy=0;exitPerimeter=0;entryX=0.858;entryY=-0.026;entryDx=0;entryDy=0;entryPerimeter=0;" parent="1" source="192" target="188" edge="1">
                    <mxGeometry relative="1" as="geometry"/>
                </mxCell>
                <mxCell id="191" style="edgeStyle=none;rounded=0;html=1;entryX=0.5;entryY=0;entryDx=0;entryDy=0;fontSize=14;fontColor=#000000;strokeColor=#000000;exitX=0.175;exitY=0.987;exitDx=0;exitDy=0;exitPerimeter=0;" parent="1" source="192" target="210" edge="1">
                    <mxGeometry relative="1" as="geometry">
                        <Array as="points">
                            <mxPoint x="443" y="4010"/>
                        </Array>
                    </mxGeometry>
                </mxCell>
                <mxCell id="192" value="StandLight&lt;br&gt;Service" style="whiteSpace=wrap;html=1;fontSize=18;strokeColor=#36393d;fillColor=#f9f7ed;fontColor=#000000;" parent="1" vertex="1">
                    <mxGeometry x="422" y="3930" width="120" height="60" as="geometry"/>
                </mxCell>
                <mxCell id="193" value="" style="edgeStyle=none;html=1;strokeColor=#000000;" parent="1" source="194" target="196" edge="1">
                    <mxGeometry relative="1" as="geometry"/>
                </mxCell>
                <mxCell id="194" value="Clock&lt;br&gt;Service" style="whiteSpace=wrap;html=1;fontSize=18;fillColor=#f9f7ed;strokeColor=#36393d;fontColor=#000000;" parent="1" vertex="1">
                    <mxGeometry x="559" y="3930" width="120" height="60" as="geometry"/>
                </mxCell>
                <mxCell id="195" value="" style="edgeStyle=none;html=1;strokeColor=#000000;" parent="1" source="196" target="197" edge="1">
                    <mxGeometry relative="1" as="geometry"/>
                </mxCell>
                <mxCell id="196" value="ClockView" style="whiteSpace=wrap;html=1;fontSize=18;fillColor=#f9f7ed;strokeColor=#36393d;fontColor=#000000;" parent="1" vertex="1">
                    <mxGeometry x="559" y="4130" width="120" height="60" as="geometry"/>
                </mxCell>
                <mxCell id="197" value="LCD" style="whiteSpace=wrap;html=1;fontSize=18;fillColor=#f9f7ed;strokeColor=#36393d;fontColor=#000000;" parent="1" vertex="1">
                    <mxGeometry x="558" y="4260" width="120" height="60" as="geometry"/>
                </mxCell>
                <mxCell id="198" value="5" style="text;html=1;resizable=0;autosize=1;align=center;verticalAlign=middle;points=[];fillColor=none;rounded=0;fontColor=#000000;" parent="1" vertex="1">
                    <mxGeometry x="493" y="4240" width="20" height="20" as="geometry"/>
                </mxCell>
                <mxCell id="199" value="2" style="text;html=1;resizable=0;autosize=1;align=center;verticalAlign=middle;points=[];fillColor=none;rounded=0;fontColor=#000000;" parent="1" vertex="1">
                    <mxGeometry x="60" y="4160" width="20" height="20" as="geometry"/>
                </mxCell>
                <mxCell id="202" value="" style="edgeStyle=orthogonalEdgeStyle;rounded=0;html=1;fontColor=#000000;strokeColor=#000000;" parent="1" source="204" target="207" edge="1">
                    <mxGeometry relative="1" as="geometry"/>
                </mxCell>
                <mxCell id="203" style="edgeStyle=none;rounded=0;html=1;entryX=1;entryY=0.5;entryDx=0;entryDy=0;fontColor=#000000;strokeColor=#000000;exitX=0.621;exitY=0.003;exitDx=0;exitDy=0;exitPerimeter=0;" parent="1" source="204" target="208" edge="1">
                    <mxGeometry relative="1" as="geometry">
                        <mxPoint x="763" y="3920" as="sourcePoint"/>
                        <Array as="points">
                            <mxPoint x="763" y="3750"/>
                        </Array>
                    </mxGeometry>
                </mxCell>
                <mxCell id="204" value="TempHumid&lt;br&gt;Service" style="whiteSpace=wrap;html=1;fontSize=18;fillColor=#f9f7ed;strokeColor=#36393d;fontColor=#000000;" parent="1" vertex="1">
                    <mxGeometry x="689" y="3930" width="120" height="60" as="geometry"/>
                </mxCell>
                <mxCell id="205" style="edgeStyle=orthogonalEdgeStyle;rounded=0;html=1;entryX=0.667;entryY=0.006;entryDx=0;entryDy=0;entryPerimeter=0;fontColor=#000000;strokeColor=#000000;" parent="1" source="207" target="197" edge="1">
                    <mxGeometry relative="1" as="geometry">
                        <Array as="points">
                            <mxPoint x="749" y="4220"/>
                            <mxPoint x="638" y="4220"/>
                        </Array>
                    </mxGeometry>
                </mxCell>
                <mxCell id="206" style="edgeStyle=none;rounded=0;html=1;entryX=0.5;entryY=0;entryDx=0;entryDy=0;fontColor=#000000;strokeColor=#000000;" parent="1" source="207" target="209" edge="1">
                    <mxGeometry relative="1" as="geometry"/>
                </mxCell>
                <mxCell id="207" value="TempHumid&lt;br&gt;View" style="whiteSpace=wrap;html=1;fontSize=18;fillColor=#f9f7ed;strokeColor=#36393d;fontColor=#000000;" parent="1" vertex="1">
                    <mxGeometry x="689" y="4130" width="120" height="60" as="geometry"/>
                </mxCell>
                <mxCell id="208" value="DHT_Data" style="whiteSpace=wrap;html=1;fontSize=18;strokeColor=#36393d;fillColor=#f9f7ed;fontColor=#000000;" parent="1" vertex="1">
                    <mxGeometry x="559" y="3720" width="120" height="60" as="geometry"/>
                </mxCell>
                <mxCell id="209" value="Minitor" style="whiteSpace=wrap;html=1;fontSize=18;fillColor=#f9f7ed;strokeColor=#36393d;fontColor=#000000;" parent="1" vertex="1">
                    <mxGeometry x="689" y="4260" width="120" height="60" as="geometry"/>
                </mxCell>
                <mxCell id="210" value="&amp;lt;&amp;lt;enum&amp;gt;&amp;gt;&lt;br&gt;lightState" style="whiteSpace=wrap;html=1;fontSize=18;strokeColor=#36393d;fillColor=#f9f7ed;fontColor=#000000;" parent="1" vertex="1">
                    <mxGeometry x="383" y="4030" width="120" height="60" as="geometry"/>
                </mxCell>
                <mxCell id="213" value="Button" style="whiteSpace=wrap;html=1;fontSize=18;fillColor=#f9f7ed;strokeColor=#36393d;fontColor=#000000;" parent="1" vertex="1">
                    <mxGeometry x="18" y="4180" width="70" height="60" as="geometry"/>
                </mxCell>
                <mxCell id="214" value="ClockCheck" style="whiteSpace=wrap;html=1;fontSize=18;fillColor=#f9f7ed;strokeColor=#36393d;fontColor=#000000;" parent="1" vertex="1">
                    <mxGeometry x="98" y="4180" width="116" height="60" as="geometry"/>
                </mxCell>
                <mxCell id="215" value="DHT11" style="whiteSpace=wrap;html=1;fontSize=18;fillColor=#f9f7ed;strokeColor=#36393d;fontColor=#000000;" parent="1" vertex="1">
                    <mxGeometry x="223" y="4180" width="80" height="60" as="geometry"/>
                </mxCell>
                <mxCell id="216" value="UltraSonic" style="whiteSpace=wrap;html=1;fontSize=18;fillColor=#ffff88;strokeColor=#36393d;fontColor=#000000;" parent="1" vertex="1">
                    <mxGeometry x="313" y="4180" width="101" height="60" as="geometry"/>
                </mxCell>
                <mxCell id="218" style="edgeStyle=none;rounded=0;html=1;entryX=0.5;entryY=1;entryDx=0;entryDy=0;fontSize=14;fontColor=#000000;strokeColor=#000000;" parent="1" target="221" edge="1">
                    <mxGeometry relative="1" as="geometry">
                        <Array as="points"/>
                        <mxPoint x="505" y="2140" as="sourcePoint"/>
                    </mxGeometry>
                </mxCell>
                <mxCell id="219" value="" style="edgeStyle=none;html=1;strokeColor=#000000;exitX=0.861;exitY=0.987;exitDx=0;exitDy=0;exitPerimeter=0;" parent="1" edge="1">
                    <mxGeometry relative="1" as="geometry">
                        <mxPoint x="587.6899999999999" y="2010" as="sourcePoint"/>
                        <mxPoint x="587" y="2140" as="targetPoint"/>
                    </mxGeometry>
                </mxCell>
                <mxCell id="220" style="edgeStyle=none;rounded=0;html=1;entryX=0.5;entryY=0;entryDx=0;entryDy=0;fontSize=14;fontColor=#000000;strokeColor=#000000;exitX=0.175;exitY=0.987;exitDx=0;exitDy=0;exitPerimeter=0;" parent="1" target="221" edge="1">
                    <mxGeometry relative="1" as="geometry">
                        <Array as="points">
                            <mxPoint x="505.37" y="2030.7800000000002"/>
                        </Array>
                        <mxPoint x="505.37000000000023" y="2010" as="sourcePoint"/>
                    </mxGeometry>
                </mxCell>
                <mxCell id="221" value="&amp;lt;&amp;lt;enum&amp;gt;&amp;gt;&lt;br&gt;lightState" style="whiteSpace=wrap;html=1;fontSize=18;strokeColor=#36393d;fillColor=#f9f7ed;fontColor=#000000;" parent="1" vertex="1">
                    <mxGeometry x="445.37" y="2050.78" width="120" height="60" as="geometry"/>
                </mxCell>
                <mxCell id="237" style="edgeStyle=none;rounded=0;html=1;entryX=0.5;entryY=1;entryDx=0;entryDy=0;fontSize=14;fontColor=#000000;strokeColor=#000000;" parent="1" target="240" edge="1">
                    <mxGeometry relative="1" as="geometry">
                        <Array as="points"/>
                        <mxPoint x="489.63" y="1580" as="sourcePoint"/>
                    </mxGeometry>
                </mxCell>
                <mxCell id="238" value="" style="edgeStyle=none;html=1;strokeColor=#000000;exitX=0.861;exitY=0.987;exitDx=0;exitDy=0;exitPerimeter=0;" parent="1" edge="1">
                    <mxGeometry relative="1" as="geometry">
                        <mxPoint x="572.32" y="1450" as="sourcePoint"/>
                        <mxPoint x="571.63" y="1580" as="targetPoint"/>
                    </mxGeometry>
                </mxCell>
                <mxCell id="239" style="edgeStyle=none;rounded=0;html=1;entryX=0.5;entryY=0;entryDx=0;entryDy=0;fontSize=14;fontColor=#000000;strokeColor=#000000;exitX=0.175;exitY=0.987;exitDx=0;exitDy=0;exitPerimeter=0;" parent="1" target="240" edge="1">
                    <mxGeometry relative="1" as="geometry">
                        <Array as="points">
                            <mxPoint x="490" y="1470.7800000000002"/>
                        </Array>
                        <mxPoint x="490.00000000000034" y="1450" as="sourcePoint"/>
                    </mxGeometry>
                </mxCell>
                <mxCell id="240" value="&amp;lt;&amp;lt;enum&amp;gt;&amp;gt;&lt;br&gt;lightState" style="whiteSpace=wrap;html=1;fontSize=18;strokeColor=#36393d;fillColor=#ffff88;fontColor=#000000;" parent="1" vertex="1">
                    <mxGeometry x="430" y="1490.7800000000002" width="120" height="60" as="geometry"/>
                </mxCell>
                <mxCell id="241" value="&lt;font&gt;&lt;font style=&quot;font-size: 14px&quot;&gt;&lt;font&gt;&lt;font&gt;&lt;font&gt;&lt;font&gt;스탠드 #7&lt;br&gt;1. 버튼1 : LED 밝기 조절&lt;br&gt;2. 버튼2 : LCD(시계) back light ON/OFF&lt;br&gt;3. LCD 0 : LED 모드 상태 표시 (off,1,2,3,4,5)&lt;br&gt;&amp;nbsp; &amp;nbsp; LCD 1: 시계 (hh:mm:ss)&lt;br&gt;&lt;/font&gt;4. 온습도 센서 &lt;br&gt;&lt;span style=&quot;white-space: pre&quot;&gt;&#9;&lt;/span&gt;LCD 0/1: 온도, 습도&lt;br&gt;&lt;/font&gt;&#9;&lt;span style=&quot;white-space: pre&quot;&gt;&#9;&lt;/span&gt;온도가 높으면 warning message LCD 출력 + LCD LIGHT OFF MODE&lt;br&gt;&lt;b&gt;&lt;span style=&quot;white-space: pre&quot;&gt;&#9;&lt;/span&gt;온도가 높으면 선풍기 동작&lt;/b&gt;&lt;br&gt;&lt;/font&gt;5. 초음파센서 : 사용자 부재시 LIGHT OFF, 사용자 접근시LIGHT&amp;nbsp;ON&lt;br&gt;&lt;/font&gt;&lt;b&gt;6. 버튼3 : DC MOTER와 PWM를 이용한 선풍기 ON/OFF&lt;br&gt;7. 시계 부분에 카운트 기능&lt;/b&gt;&lt;/font&gt;&lt;br&gt;&lt;/font&gt;" style="text;html=1;resizable=0;autosize=1;align=left;verticalAlign=middle;points=[];fillColor=none;strokeColor=none;rounded=0;fontColor=#000000;" parent="1" vertex="1">
                    <mxGeometry x="18" y="4705" width="480" height="170" as="geometry"/>
                </mxCell>
                <mxCell id="242" value="" style="edgeStyle=none;html=1;fontSize=18;entryX=0.5;entryY=0;entryDx=0;entryDy=0;rounded=0;fontColor=#000000;strokeColor=#000000;" parent="1" source="248" target="278" edge="1">
                    <mxGeometry relative="1" as="geometry">
                        <Array as="points">
                            <mxPoint x="220" y="5230"/>
                            <mxPoint x="55" y="5230"/>
                        </Array>
                        <mxPoint x="90" y="5370" as="targetPoint"/>
                    </mxGeometry>
                </mxCell>
                <mxCell id="243" value="" style="edgeStyle=none;html=1;fontSize=18;strokeColor=#000000;" parent="1" source="248" target="253" edge="1">
                    <mxGeometry relative="1" as="geometry"/>
                </mxCell>
                <mxCell id="244" style="edgeStyle=none;rounded=0;html=1;entryX=0.5;entryY=0;entryDx=0;entryDy=0;exitX=0.5;exitY=1;exitDx=0;exitDy=0;fontColor=#000000;strokeColor=#000000;" parent="1" source="248" target="279" edge="1">
                    <mxGeometry relative="1" as="geometry">
                        <Array as="points">
                            <mxPoint x="220" y="5230"/>
                            <mxPoint x="158" y="5230"/>
                        </Array>
                        <mxPoint x="220" y="5370" as="targetPoint"/>
                    </mxGeometry>
                </mxCell>
                <mxCell id="245" style="edgeStyle=orthogonalEdgeStyle;rounded=0;html=1;exitX=0.5;exitY=1;exitDx=0;exitDy=0;fontSize=14;fontColor=#000000;strokeColor=#000000;entryX=0.5;entryY=0;entryDx=0;entryDy=0;" parent="1" source="248" target="280" edge="1">
                    <mxGeometry relative="1" as="geometry">
                        <Array as="points">
                            <mxPoint x="220" y="5230"/>
                            <mxPoint x="265" y="5230"/>
                        </Array>
                        <mxPoint x="344.0909090909088" y="5370" as="targetPoint"/>
                    </mxGeometry>
                </mxCell>
                <mxCell id="246" style="edgeStyle=none;html=1;entryX=0;entryY=0.5;entryDx=0;entryDy=0;fontColor=#000000;strokeColor=#000000;exitX=0.5;exitY=0;exitDx=0;exitDy=0;rounded=0;" parent="1" source="248" target="275" edge="1">
                    <mxGeometry relative="1" as="geometry">
                        <Array as="points">
                            <mxPoint x="220" y="4960"/>
                        </Array>
                    </mxGeometry>
                </mxCell>
                <mxCell id="247" style="edgeStyle=none;html=1;entryX=0.5;entryY=0;entryDx=0;entryDy=0;strokeColor=#000000;rounded=0;" parent="1" source="248" target="281" edge="1">
                    <mxGeometry relative="1" as="geometry">
                        <Array as="points">
                            <mxPoint x="220" y="5230"/>
                            <mxPoint x="366" y="5230"/>
                        </Array>
                    </mxGeometry>
                </mxCell>
                <mxCell id="290" style="edgeStyle=none;rounded=0;html=1;entryX=0.5;entryY=0;entryDx=0;entryDy=0;fontColor=#000000;strokeColor=#000000;" edge="1" parent="1" source="248" target="288">
                    <mxGeometry relative="1" as="geometry">
                        <Array as="points">
                            <mxPoint x="220" y="5230"/>
                            <mxPoint x="479" y="5230"/>
                        </Array>
                    </mxGeometry>
                </mxCell>
                <mxCell id="248" value="Listener" style="whiteSpace=wrap;html=1;fontSize=18;strokeColor=#36393d;fillColor=#f9f7ed;fontColor=#000000;" parent="1" vertex="1">
                    <mxGeometry x="160" y="5020" width="120" height="60" as="geometry"/>
                </mxCell>
                <mxCell id="249" style="edgeStyle=none;html=1;entryX=0.5;entryY=0;entryDx=0;entryDy=0;rounded=0;strokeColor=#000000;" parent="1" source="253" target="261" edge="1">
                    <mxGeometry relative="1" as="geometry">
                        <Array as="points">
                            <mxPoint x="805" y="5110"/>
                            <mxPoint x="668" y="5110"/>
                        </Array>
                    </mxGeometry>
                </mxCell>
                <mxCell id="250" style="edgeStyle=orthogonalEdgeStyle;html=1;exitX=0.5;exitY=1;exitDx=0;exitDy=0;entryX=0.5;entryY=0;entryDx=0;entryDy=0;fontColor=#000000;rounded=0;strokeColor=#000000;" parent="1" source="253" target="271" edge="1">
                    <mxGeometry relative="1" as="geometry">
                        <Array as="points">
                            <mxPoint x="805" y="5110"/>
                            <mxPoint x="935" y="5110"/>
                        </Array>
                    </mxGeometry>
                </mxCell>
                <mxCell id="251" style="edgeStyle=none;rounded=0;html=1;entryX=0.5;entryY=1;entryDx=0;entryDy=0;fontColor=#000000;strokeColor=#000000;exitX=0.5;exitY=0;exitDx=0;exitDy=0;" parent="1" source="253" target="275" edge="1">
                    <mxGeometry relative="1" as="geometry">
                        <Array as="points"/>
                    </mxGeometry>
                </mxCell>
                <mxCell id="252" style="edgeStyle=none;rounded=0;html=1;entryX=0.5;entryY=0;entryDx=0;entryDy=0;fontColor=#000000;strokeColor=#000000;" parent="1" source="253" target="263" edge="1">
                    <mxGeometry relative="1" as="geometry"/>
                </mxCell>
                <mxCell id="299" style="edgeStyle=none;rounded=0;html=1;entryX=0.5;entryY=0;entryDx=0;entryDy=0;fontColor=#000000;strokeColor=#000000;" edge="1" parent="1" source="253" target="292">
                    <mxGeometry relative="1" as="geometry">
                        <Array as="points">
                            <mxPoint x="805" y="5110"/>
                            <mxPoint x="1070" y="5110"/>
                        </Array>
                    </mxGeometry>
                </mxCell>
                <mxCell id="253" value="Controller" style="whiteSpace=wrap;html=1;fontSize=18;strokeColor=#36393d;fillColor=#f9f7ed;fontColor=#000000;" parent="1" vertex="1">
                    <mxGeometry x="745" y="5020" width="120" height="60" as="geometry"/>
                </mxCell>
                <mxCell id="254" value="" style="edgeStyle=none;html=1;fontSize=18;strokeColor=#000000;" parent="1" source="257" target="258" edge="1">
                    <mxGeometry relative="1" as="geometry"/>
                </mxCell>
                <mxCell id="255" style="edgeStyle=none;html=1;exitX=0.5;exitY=1;exitDx=0;exitDy=0;strokeColor=#000000;entryX=0.35;entryY=0.033;entryDx=0;entryDy=0;entryPerimeter=0;rounded=0;" parent="1" source="257" target="266" edge="1">
                    <mxGeometry relative="1" as="geometry">
                        <mxPoint x="785" y="5450" as="targetPoint"/>
                        <Array as="points">
                            <mxPoint x="668" y="5450"/>
                            <mxPoint x="786" y="5450"/>
                        </Array>
                    </mxGeometry>
                </mxCell>
                <mxCell id="256" style="edgeStyle=none;rounded=0;html=1;entryX=0.5;entryY=1;entryDx=0;entryDy=0;fontSize=14;fontColor=#000000;strokeColor=#000000;exitX=0.175;exitY=-0.008;exitDx=0;exitDy=0;exitPerimeter=0;" parent="1" source="257" target="277" edge="1">
                    <mxGeometry relative="1" as="geometry">
                        <Array as="points">
                            <mxPoint x="629" y="5320"/>
                        </Array>
                    </mxGeometry>
                </mxCell>
                <mxCell id="257" value="LightView" style="whiteSpace=wrap;html=1;fontSize=18;strokeColor=#36393d;fillColor=#f9f7ed;fontColor=#000000;" parent="1" vertex="1">
                    <mxGeometry x="608" y="5360" width="120" height="60" as="geometry"/>
                </mxCell>
                <mxCell id="258" value="Led" style="whiteSpace=wrap;html=1;fontSize=18;strokeColor=#36393d;fillColor=#f9f7ed;fontColor=#000000;" parent="1" vertex="1">
                    <mxGeometry x="608" y="5490" width="120" height="60" as="geometry"/>
                </mxCell>
                <mxCell id="259" value="" style="edgeStyle=none;html=1;strokeColor=#000000;entryX=0.849;entryY=0.01;entryDx=0;entryDy=0;entryPerimeter=0;" parent="1" target="257" edge="1">
                    <mxGeometry relative="1" as="geometry">
                        <mxPoint x="710" y="5203" as="sourcePoint"/>
                        <mxPoint x="710" y="5340" as="targetPoint"/>
                    </mxGeometry>
                </mxCell>
                <mxCell id="260" style="edgeStyle=none;rounded=0;html=1;entryX=0.5;entryY=0;entryDx=0;entryDy=0;fontSize=14;fontColor=#000000;strokeColor=#000000;exitX=0.175;exitY=0.987;exitDx=0;exitDy=0;exitPerimeter=0;" parent="1" source="261" target="277" edge="1">
                    <mxGeometry relative="1" as="geometry">
                        <Array as="points">
                            <mxPoint x="629" y="5220"/>
                        </Array>
                    </mxGeometry>
                </mxCell>
                <mxCell id="300" style="edgeStyle=none;rounded=0;html=1;entryX=0;entryY=0.5;entryDx=0;entryDy=0;fontColor=#000000;strokeColor=#000000;exitX=0.849;exitY=0.995;exitDx=0;exitDy=0;exitPerimeter=0;" edge="1" parent="1" source="261" target="297">
                    <mxGeometry relative="1" as="geometry">
                        <mxPoint x="720" y="5200" as="sourcePoint"/>
                        <Array as="points">
                            <mxPoint x="710" y="5271"/>
                        </Array>
                    </mxGeometry>
                </mxCell>
                <mxCell id="301" style="edgeStyle=none;rounded=0;html=1;fontColor=#000000;strokeColor=#000000;" edge="1" parent="1">
                    <mxGeometry relative="1" as="geometry">
                        <mxPoint x="1020" y="5360" as="targetPoint"/>
                        <mxPoint x="710" y="5200" as="sourcePoint"/>
                        <Array as="points">
                            <mxPoint x="710" y="5320"/>
                            <mxPoint x="1020" y="5320"/>
                        </Array>
                    </mxGeometry>
                </mxCell>
                <mxCell id="261" value="StandLight&lt;br&gt;Service" style="whiteSpace=wrap;html=1;fontSize=18;strokeColor=#36393d;fillColor=#ffff88;fontColor=#000000;" parent="1" vertex="1">
                    <mxGeometry x="608" y="5140" width="120" height="60" as="geometry"/>
                </mxCell>
                <mxCell id="262" value="" style="edgeStyle=none;html=1;strokeColor=#000000;" parent="1" source="263" target="265" edge="1">
                    <mxGeometry relative="1" as="geometry"/>
                </mxCell>
                <mxCell id="263" value="Clock&lt;br&gt;Service" style="whiteSpace=wrap;html=1;fontSize=18;fillColor=#f9f7ed;strokeColor=#36393d;fontColor=#000000;" parent="1" vertex="1">
                    <mxGeometry x="745" y="5140" width="120" height="60" as="geometry"/>
                </mxCell>
                <mxCell id="264" value="" style="edgeStyle=none;html=1;strokeColor=#000000;" parent="1" source="265" target="266" edge="1">
                    <mxGeometry relative="1" as="geometry"/>
                </mxCell>
                <mxCell id="265" value="ClockView" style="whiteSpace=wrap;html=1;fontSize=18;fillColor=#f9f7ed;strokeColor=#36393d;fontColor=#000000;" parent="1" vertex="1">
                    <mxGeometry x="745" y="5360" width="120" height="60" as="geometry"/>
                </mxCell>
                <mxCell id="266" value="LCD" style="whiteSpace=wrap;html=1;fontSize=18;fillColor=#f9f7ed;strokeColor=#36393d;fontColor=#000000;" parent="1" vertex="1">
                    <mxGeometry x="744" y="5490" width="120" height="60" as="geometry"/>
                </mxCell>
                <mxCell id="267" value="5" style="text;html=1;resizable=0;autosize=1;align=center;verticalAlign=middle;points=[];fillColor=none;rounded=0;fontColor=#000000;" parent="1" vertex="1">
                    <mxGeometry x="679" y="5470" width="20" height="20" as="geometry"/>
                </mxCell>
                <mxCell id="268" value="3" style="text;html=1;resizable=0;autosize=1;align=center;verticalAlign=middle;points=[];fillColor=none;rounded=0;fontColor=#000000;" parent="1" vertex="1">
                    <mxGeometry x="62" y="5370" width="20" height="20" as="geometry"/>
                </mxCell>
                <mxCell id="269" value="" style="edgeStyle=orthogonalEdgeStyle;rounded=0;html=1;fontColor=#000000;strokeColor=#000000;" parent="1" source="271" target="274" edge="1">
                    <mxGeometry relative="1" as="geometry"/>
                </mxCell>
                <mxCell id="270" style="edgeStyle=none;rounded=0;html=1;entryX=1;entryY=0.5;entryDx=0;entryDy=0;fontColor=#000000;strokeColor=#000000;exitX=0.365;exitY=-0.011;exitDx=0;exitDy=0;exitPerimeter=0;" parent="1" source="271" target="275" edge="1">
                    <mxGeometry relative="1" as="geometry">
                        <mxPoint x="949" y="5130" as="sourcePoint"/>
                        <Array as="points">
                            <mxPoint x="919" y="4960"/>
                        </Array>
                    </mxGeometry>
                </mxCell>
                <mxCell id="271" value="TempHumid&lt;br&gt;Service" style="whiteSpace=wrap;html=1;fontSize=18;fillColor=#f9f7ed;strokeColor=#36393d;fontColor=#000000;" parent="1" vertex="1">
                    <mxGeometry x="875" y="5140" width="120" height="60" as="geometry"/>
                </mxCell>
                <mxCell id="272" style="edgeStyle=orthogonalEdgeStyle;rounded=0;html=1;entryX=0.667;entryY=0.006;entryDx=0;entryDy=0;entryPerimeter=0;fontColor=#000000;strokeColor=#000000;" parent="1" source="274" target="266" edge="1">
                    <mxGeometry relative="1" as="geometry">
                        <Array as="points">
                            <mxPoint x="935" y="5450"/>
                            <mxPoint x="824" y="5450"/>
                        </Array>
                    </mxGeometry>
                </mxCell>
                <mxCell id="273" style="edgeStyle=none;rounded=0;html=1;entryX=0.5;entryY=0;entryDx=0;entryDy=0;fontColor=#000000;strokeColor=#000000;" parent="1" source="274" target="276" edge="1">
                    <mxGeometry relative="1" as="geometry"/>
                </mxCell>
                <mxCell id="274" value="TempHumid&lt;br&gt;View" style="whiteSpace=wrap;html=1;fontSize=18;fillColor=#f9f7ed;strokeColor=#36393d;fontColor=#000000;" parent="1" vertex="1">
                    <mxGeometry x="875" y="5360" width="120" height="60" as="geometry"/>
                </mxCell>
                <mxCell id="275" value="DHT_Data" style="whiteSpace=wrap;html=1;fontSize=18;strokeColor=#36393d;fillColor=#f9f7ed;fontColor=#000000;" parent="1" vertex="1">
                    <mxGeometry x="745" y="4930" width="120" height="60" as="geometry"/>
                </mxCell>
                <mxCell id="276" value="Minitor" style="whiteSpace=wrap;html=1;fontSize=18;fillColor=#f9f7ed;strokeColor=#36393d;fontColor=#000000;" parent="1" vertex="1">
                    <mxGeometry x="875" y="5490" width="120" height="60" as="geometry"/>
                </mxCell>
                <mxCell id="277" value="&amp;lt;&amp;lt;enum&amp;gt;&amp;gt;&lt;br&gt;lightState" style="whiteSpace=wrap;html=1;fontSize=18;strokeColor=#36393d;fillColor=#f9f7ed;fontColor=#000000;" parent="1" vertex="1">
                    <mxGeometry x="569" y="5240" width="120" height="60" as="geometry"/>
                </mxCell>
                <mxCell id="278" value="Button" style="whiteSpace=wrap;html=1;fontSize=18;fillColor=#f9f7ed;strokeColor=#36393d;fontColor=#000000;" parent="1" vertex="1">
                    <mxGeometry x="20" y="5390" width="70" height="60" as="geometry"/>
                </mxCell>
                <mxCell id="279" value="ClockCheck" style="whiteSpace=wrap;html=1;fontSize=18;fillColor=#f9f7ed;strokeColor=#36393d;fontColor=#000000;" parent="1" vertex="1">
                    <mxGeometry x="100" y="5390" width="116" height="60" as="geometry"/>
                </mxCell>
                <mxCell id="280" value="DHT11" style="whiteSpace=wrap;html=1;fontSize=18;fillColor=#f9f7ed;strokeColor=#36393d;fontColor=#000000;" parent="1" vertex="1">
                    <mxGeometry x="225" y="5390" width="80" height="60" as="geometry"/>
                </mxCell>
                <mxCell id="281" value="UltraSonic" style="whiteSpace=wrap;html=1;fontSize=18;fillColor=#f9f7ed;strokeColor=#36393d;fontColor=#000000;" parent="1" vertex="1">
                    <mxGeometry x="315" y="5390" width="101" height="60" as="geometry"/>
                </mxCell>
                <mxCell id="282" value="&lt;b&gt;&lt;font style=&quot;font-size: 18px&quot;&gt;UML CLASS DIAGRAM&lt;/font&gt;&lt;/b&gt;" style="text;html=1;resizable=0;autosize=1;align=center;verticalAlign=middle;points=[];fillColor=none;strokeColor=none;rounded=0;fontSize=14;fontColor=#000000;" parent="1" vertex="1">
                    <mxGeometry x="340" y="10" width="210" height="20" as="geometry"/>
                </mxCell>
                <mxCell id="288" value="Motor" style="whiteSpace=wrap;html=1;fontSize=18;fillColor=#ffff88;strokeColor=#36393d;fontColor=#000000;" vertex="1" parent="1">
                    <mxGeometry x="428.5" y="5390" width="101" height="60" as="geometry"/>
                </mxCell>
                <mxCell id="291" value="Fan" style="whiteSpace=wrap;html=1;fontSize=18;fillColor=#ffff88;strokeColor=#36393d;fontColor=#000000;" vertex="1" parent="1">
                    <mxGeometry x="1010" y="5490" width="120" height="60" as="geometry"/>
                </mxCell>
                <mxCell id="292" value="Motor&lt;br&gt;Service" style="whiteSpace=wrap;html=1;fontSize=18;fillColor=#ffff88;strokeColor=#36393d;fontColor=#000000;" vertex="1" parent="1">
                    <mxGeometry x="1010" y="5140" width="120" height="60" as="geometry"/>
                </mxCell>
                <mxCell id="293" style="edgeStyle=none;rounded=0;html=1;entryX=0.5;entryY=1;entryDx=0;entryDy=0;fontSize=14;fontColor=#000000;strokeColor=#000000;exitX=0.175;exitY=-0.008;exitDx=0;exitDy=0;exitPerimeter=0;" edge="1" parent="1" source="294" target="297">
                    <mxGeometry relative="1" as="geometry">
                        <Array as="points">
                            <mxPoint x="1031" y="5320.78"/>
                        </Array>
                    </mxGeometry>
                </mxCell>
                <mxCell id="298" style="edgeStyle=none;rounded=0;html=1;entryX=0.5;entryY=0;entryDx=0;entryDy=0;fontColor=#000000;strokeColor=#000000;" edge="1" parent="1" source="294" target="291">
                    <mxGeometry relative="1" as="geometry"/>
                </mxCell>
                <mxCell id="294" value="MotorView" style="whiteSpace=wrap;html=1;fontSize=18;strokeColor=#36393d;fillColor=#ffff88;fontColor=#000000;" vertex="1" parent="1">
                    <mxGeometry x="1010" y="5360" width="120" height="60" as="geometry"/>
                </mxCell>
                <mxCell id="295" value="" style="edgeStyle=none;html=1;strokeColor=#000000;exitX=0.861;exitY=0.987;exitDx=0;exitDy=0;exitPerimeter=0;entryX=0.858;entryY=-0.026;entryDx=0;entryDy=0;entryPerimeter=0;" edge="1" parent="1" target="294">
                    <mxGeometry relative="1" as="geometry">
                        <mxPoint x="1113.32" y="5200" as="sourcePoint"/>
                    </mxGeometry>
                </mxCell>
                <mxCell id="296" style="edgeStyle=none;rounded=0;html=1;entryX=0.5;entryY=0;entryDx=0;entryDy=0;fontSize=14;fontColor=#000000;strokeColor=#000000;exitX=0.175;exitY=0.987;exitDx=0;exitDy=0;exitPerimeter=0;" edge="1" parent="1" target="297">
                    <mxGeometry relative="1" as="geometry">
                        <Array as="points">
                            <mxPoint x="1031" y="5220.78"/>
                        </Array>
                        <mxPoint x="1031.0000000000002" y="5200" as="sourcePoint"/>
                    </mxGeometry>
                </mxCell>
                <mxCell id="297" value="&amp;lt;&amp;lt;enum&amp;gt;&amp;gt;&lt;br&gt;motorState" style="whiteSpace=wrap;html=1;fontSize=18;strokeColor=#36393d;fillColor=#ffff88;fontColor=#000000;" vertex="1" parent="1">
                    <mxGeometry x="971" y="5240.78" width="120" height="60" as="geometry"/>
                </mxCell>
            </root>
        </mxGraphModel>
    </diagram>
    <diagram id="JMYObuIH1QSER_L9iBrt" name="페이지-2">
        <mxGraphModel dx="550" dy="321" grid="1" gridSize="10" guides="1" tooltips="1" connect="1" arrows="1" fold="1" page="1" pageScale="1" pageWidth="827" pageHeight="1169" math="0" shadow="0">
            <root>
                <mxCell id="Q607Y2rKxZQUFugG3BdK-0"/>
                <mxCell id="Q607Y2rKxZQUFugG3BdK-1" parent="Q607Y2rKxZQUFugG3BdK-0"/>
                <mxCell id="XUThxh31XiLSm-2z7mRA-0" value="Button" style="whiteSpace=wrap;html=1;fontSize=18;" parent="Q607Y2rKxZQUFugG3BdK-1" vertex="1">
                    <mxGeometry x="150" y="220" width="120" height="60" as="geometry"/>
                </mxCell>
                <mxCell id="XUThxh31XiLSm-2z7mRA-1" value="" style="edgeStyle=none;html=1;fontSize=18;" parent="Q607Y2rKxZQUFugG3BdK-1" source="XUThxh31XiLSm-2z7mRA-2" target="XUThxh31XiLSm-2z7mRA-0" edge="1">
                    <mxGeometry relative="1" as="geometry"/>
                </mxCell>
                <mxCell id="Xn4zP_rzqBb-KwKWEkbt-1" style="edgeStyle=orthogonalEdgeStyle;rounded=0;html=1;exitX=1;exitY=0.5;exitDx=0;exitDy=0;fontSize=18;" parent="Q607Y2rKxZQUFugG3BdK-1" source="XUThxh31XiLSm-2z7mRA-2" target="Xn4zP_rzqBb-KwKWEkbt-0" edge="1">
                    <mxGeometry relative="1" as="geometry"/>
                </mxCell>
                <mxCell id="XUThxh31XiLSm-2z7mRA-2" value="Listener" style="whiteSpace=wrap;html=1;fontSize=18;" parent="Q607Y2rKxZQUFugG3BdK-1" vertex="1">
                    <mxGeometry x="150" y="80" width="120" height="60" as="geometry"/>
                </mxCell>
                <mxCell id="XUThxh31XiLSm-2z7mRA-3" value="LED" style="whiteSpace=wrap;html=1;fontSize=18;" parent="Q607Y2rKxZQUFugG3BdK-1" vertex="1">
                    <mxGeometry x="540" y="220" width="120" height="60" as="geometry"/>
                </mxCell>
                <mxCell id="XUThxh31XiLSm-2z7mRA-6" value="이벤트 감시 기능" style="text;html=1;align=center;verticalAlign=middle;resizable=0;points=[];autosize=1;strokeColor=none;fillColor=none;fontSize=18;" parent="Q607Y2rKxZQUFugG3BdK-1" vertex="1">
                    <mxGeometry x="130" y="50" width="150" height="30" as="geometry"/>
                </mxCell>
                <mxCell id="z8fZrk0xQkMEeZACTWGU-1" style="edgeStyle=orthogonalEdgeStyle;rounded=0;html=1;exitX=1;exitY=0.5;exitDx=0;exitDy=0;entryX=0;entryY=0.5;entryDx=0;entryDy=0;fontSize=18;" parent="Q607Y2rKxZQUFugG3BdK-1" source="Xn4zP_rzqBb-KwKWEkbt-0" target="z8fZrk0xQkMEeZACTWGU-0" edge="1">
                    <mxGeometry relative="1" as="geometry"/>
                </mxCell>
                <mxCell id="Xn4zP_rzqBb-KwKWEkbt-0" value="controller" style="whiteSpace=wrap;html=1;fontSize=18;" parent="Q607Y2rKxZQUFugG3BdK-1" vertex="1">
                    <mxGeometry x="350" y="80" width="120" height="60" as="geometry"/>
                </mxCell>
                <mxCell id="z8fZrk0xQkMEeZACTWGU-2" style="edgeStyle=orthogonalEdgeStyle;rounded=0;html=1;exitX=0.5;exitY=1;exitDx=0;exitDy=0;fontSize=18;" parent="Q607Y2rKxZQUFugG3BdK-1" source="z8fZrk0xQkMEeZACTWGU-0" target="XUThxh31XiLSm-2z7mRA-3" edge="1">
                    <mxGeometry relative="1" as="geometry"/>
                </mxCell>
                <mxCell id="z8fZrk0xQkMEeZACTWGU-0" value="View" style="whiteSpace=wrap;html=1;fontSize=18;" parent="Q607Y2rKxZQUFugG3BdK-1" vertex="1">
                    <mxGeometry x="540" y="80" width="120" height="60" as="geometry"/>
                </mxCell>
            </root>
        </mxGraphModel>
    </diagram>
</mxfile>